<?xml version="1.0" encoding="UTF-8"?>

<svg version="1.2" baseProfile="tiny" width="127mm" height="50.8mm" viewBox="0 0 12700 5080" preserveAspectRatio="xMidYMid" fill-rule="evenodd" stroke-width="28.222" stroke-linejoin="round" xmlns="http://www.w3.org/2000/svg" xmlns:xlink="http://www.w3.org/1999/xlink" xml:space="preserve">
 <g visibility="visible" id="MasterSlide_1_Default">
  <desc>Master slide
  </desc>
  <rect fill="none" stroke="none" x="0" y="0" width="12700" height="5080"/>
 </g>
 <g visibility="visible" id="Slide_1_page1">
  <g>
   <path fill="rgb(0,0,0)" stroke="none" id="Drawing_1_0" d="M 12117,2751 C 12050,2248 11727,1856 11085,1498 10495,1170 9799,962 8879,839 9087,1005 9253,1203 9396,1450 9598,1800 9689,2144 9689,2549 9689,2954 9598,3297 9396,3647 9194,3997 8943,4249 8592,4452 8242,4654 7900,4746 7496,4746 7093,4746 6749,4654 6400,4452 6051,4249 5799,3998 5597,3647 5395,3296 5304,2953 5304,2549 5304,2145 5395,1800 5597,1450 5757,1173 5946,958 6190,781 5935,803 5673,831 5403,867 4233,1023 3255,1270 2276,1658 1362,2019 704,2401 191,2869 271,2771 363,2671 465,2571 992,2056 1678,1647 2657,1259 3636,871 4614,624 5783,469 6951,313 7961,294 9008,410 10054,527 10822,742 11465,1100 12107,1458 12431,1849 12497,2352 12565,2856 12356,3320 11829,3833 11795,3867 11759,3901 11723,3934 12047,3533 12171,3156 12117,2751 Z M 6498,2548 C 6498,2384 6532,2242 6603,2101 L 5712,1655 C 5568,1937 5502,2221 5502,2548 5502,2876 5568,3160 5712,3442 L 6605,2996 C 6532,2854 6498,2711 6498,2548 Z M 7496,3347 C 7643,3347 7767,3314 7894,3240 8021,3165 8113,3075 8186,2948 8259,2821 8293,2695 8293,2548 8293,2400 8260,2276 8186,2149 8112,2022 8022,1929 7894,1856 7766,1783 7643,1748 7496,1748 7349,1748 7224,1783 7098,1856 6971,1929 6878,2021 6805,2149 6732,2277 6698,2401 6698,2548 6698,2694 6732,2820 6805,2948 6878,3076 6970,3166 7098,3240 7225,3313 7349,3347 7496,3347 Z"/>
   <path fill="none" stroke="rgb(0,0,0)" id="Drawing_1_1" stroke-width="51" stroke-linejoin="round" d="M 12117,2751 C 12050,2248 11727,1856 11085,1498 10495,1170 9799,962 8879,839 9087,1005 9253,1203 9396,1450 9598,1800 9689,2144 9689,2549 9689,2954 9598,3297 9396,3647 9194,3997 8943,4249 8592,4452 8242,4654 7900,4746 7496,4746 7093,4746 6749,4654 6400,4452 6051,4249 5799,3998 5597,3647 5395,3296 5304,2953 5304,2549 5304,2145 5395,1800 5597,1450 5757,1173 5946,958 6190,781 5935,803 5673,831 5403,867 4233,1023 3255,1270 2276,1658 1362,2019 704,2401 191,2869 271,2771 363,2671 465,2571 992,2056 1678,1647 2657,1259 3636,871 4614,624 5783,469 6951,313 7961,294 9008,410 10054,527 10822,742 11465,1100 12107,1458 12431,1849 12497,2352 12565,2856 12356,3320 11829,3833 11795,3867 11759,3901 11723,3934 12047,3533 12171,3156 12117,2751 Z"/>
   <path fill="none" stroke="rgb(0,0,0)" id="Drawing_1_2" stroke-width="51" stroke-linejoin="round" d="M 6498,2548 C 6498,2384 6532,2242 6603,2101 L 5712,1655 C 5568,1937 5502,2221 5502,2548 5502,2876 5568,3160 5712,3442 L 6605,2996 C 6532,2854 6498,2711 6498,2548 Z"/>
   <path fill="none" stroke="rgb(0,0,0)" id="Drawing_1_3" stroke-width="51" stroke-linejoin="round" d="M 7496,3347 C 7643,3347 7767,3314 7894,3240 8021,3165 8113,3075 8186,2948 8259,2821 8293,2695 8293,2548 8293,2400 8260,2276 8186,2149 8112,2022 8022,1929 7894,1856 7766,1783 7643,1748 7496,1748 7349,1748 7224,1783 7098,1856 6971,1929 6878,2021 6805,2149 6732,2277 6698,2401 6698,2548 6698,2694 6732,2820 6805,2948 6878,3076 6970,3166 7098,3240 7225,3313 7349,3347 7496,3347 Z"/>
  </g>
 </g>
</svg>